# xmcd
#
# Track frame offsets: 
#        150
#        20984
#        42174
#        61759
#        77088
#        101773
#        127140
#        146453
#        165509
#        179587
#        199090
#        214403
#
# Disc length: 3049 seconds
#
# Revision: 0
# Processed by: cddbd v1.5.2PL0 Copyright (c) Steve Scherf et al.
# Submitted via: ExactAudioCopyFreeDBPlugin 1.0
#
DISCID=b10be70c
DTITLE=X-Sinner - Loud and Proud
DYEAR=2001
DGENRE=Christian Rock
TTITLE0=No Way Back
TTITLE1=Eyes of Fire
TTITLE2=A Cut Above
TTITLE3=Medicine
TTITLE4=No Where to Run
TTITLE5=Turn It Up
TTITLE6=Got To Let Go
TTITLE7=X-Sinner
TTITLE8=Last Call (instruments only)
TTITLE9=Reap what you Sow
TTITLE10=Shame
TTITLE11=Last Call
EXTD=
EXTT0=
EXTT1=
EXTT2=
EXTT3=
EXTT4=
EXTT5=
EXTT6=
EXTT7=
EXTT8=
EXTT9=
EXTT10=
EXTT11=
PLAYORDER=
